<svg width="1280" height="720" viewBox="0 0 1280 720" fill="none" xmlns="http://www.w3.org/2000/svg">
<path d="M1280 0H0V720H1280V0Z" fill="#000D17"/>
<path d="M1280 496.932C1207.87 497.277 1135.85 497.737 1089.83 459.087C1043.81 420.552 1023.91 342.906 987.897 292.063C952.003 241.104 900.117 216.833 863.302 172.546C826.487 128.374 804.744 64.1871 783 0H1280V496.932Z" fill="#0066FF"/>
<path d="M0 252C58.9333 276.808 117.975 301.508 158.817 336.717C199.658 371.817 222.3 417.317 271.158 448.842C320.125 480.367 395.2 498.025 432.358 540.925C469.517 583.825 468.758 651.858 468 720H0V252Z" fill="#0066FF"/>
</svg>
