<svg width="752" height="358" viewBox="0 0 752 358" fill="none" xmlns="http://www.w3.org/2000/svg">
<path d="M58.8906 272.469H99.25V312.828H18.25V53.6562H99.25V93.875H58.8906V272.469ZM733.75 312.828H652.891V272.469H693.109V93.875H652.891V53.6562H733.75V312.828Z" fill="white"/>
<path d="M163.094 284H124.422V73.4844H163.094V284ZM252.391 247.156C253.891 247.625 255.391 247.953 256.891 248.141C258.391 248.234 259.891 248.281 261.391 248.281C265.141 248.281 268.75 247.766 272.219 246.734C275.688 245.703 278.922 244.25 281.922 242.375C285.016 240.406 287.734 238.062 290.078 235.344C292.516 232.531 294.484 229.438 295.984 226.062L324.109 254.328C320.547 259.391 316.422 263.938 311.734 267.969C307.141 272 302.125 275.422 296.688 278.234C291.344 281.047 285.672 283.156 279.672 284.562C273.766 286.062 267.672 286.812 261.391 286.812C250.797 286.812 240.812 284.844 231.438 280.906C222.156 276.969 214 271.484 206.969 264.453C200.031 257.422 194.547 249.078 190.516 239.422C186.484 229.672 184.469 218.984 184.469 207.359C184.469 195.453 186.484 184.578 190.516 174.734C194.547 164.891 200.031 156.5 206.969 149.562C214 142.625 222.156 137.234 231.438 133.391C240.812 129.547 250.797 127.625 261.391 127.625C267.672 127.625 273.812 128.375 279.812 129.875C285.812 131.375 291.484 133.531 296.828 136.344C302.266 139.156 307.328 142.625 312.016 146.75C316.703 150.781 320.828 155.328 324.391 160.391L252.391 247.156ZM272.078 167.984C270.297 167.328 268.516 166.906 266.734 166.719C265.047 166.531 263.266 166.438 261.391 166.438C256.141 166.438 251.172 167.422 246.484 169.391C241.891 171.266 237.859 173.984 234.391 177.547C231.016 181.109 228.344 185.422 226.375 190.484C224.406 195.453 223.422 201.078 223.422 207.359C223.422 208.766 223.469 210.359 223.562 212.141C223.75 213.922 223.984 215.75 224.266 217.625C224.641 219.406 225.062 221.141 225.531 222.828C226 224.516 226.609 226.016 227.359 227.328L272.078 167.984ZM382.188 284H343.797V133.391H353.078L365.734 148.016C371.922 142.391 378.906 138.078 386.688 135.078C394.562 131.984 402.766 130.438 411.297 130.438C420.484 130.438 429.156 132.219 437.312 135.781C445.469 139.25 452.594 144.078 458.688 150.266C464.781 156.359 469.562 163.531 473.031 171.781C476.594 179.938 478.375 188.656 478.375 197.938V284H439.984V197.938C439.984 194 439.234 190.297 437.734 186.828C436.234 183.266 434.172 180.172 431.547 177.547C428.922 174.922 425.875 172.859 422.406 171.359C418.938 169.859 415.234 169.109 411.297 169.109C407.266 169.109 403.469 169.859 399.906 171.359C396.344 172.859 393.25 174.922 390.625 177.547C388 180.172 385.938 183.266 384.438 186.828C382.938 190.297 382.188 194 382.188 197.938V284ZM588.484 284H500.734V245.75H588.484C591.109 245.75 593.359 244.812 595.234 242.938C597.109 241.062 598.047 238.812 598.047 236.188C598.047 233.469 597.109 231.688 595.234 230.844C593.359 230 591.109 229.578 588.484 229.578H548.547C541.891 229.578 535.656 228.312 529.844 225.781C524.031 223.25 518.969 219.828 514.656 215.516C510.344 211.109 506.922 206 504.391 200.188C501.953 194.375 500.734 188.141 500.734 181.484C500.734 174.828 501.953 168.594 504.391 162.781C506.922 156.969 510.344 151.906 514.656 147.594C518.969 143.281 524.031 139.906 529.844 137.469C535.656 134.938 541.891 133.672 548.547 133.672H626.312V171.922H548.547C545.922 171.922 543.672 172.859 541.797 174.734C539.922 176.609 538.984 178.859 538.984 181.484C538.984 184.203 539.922 186.547 541.797 188.516C543.672 190.391 545.922 191.328 548.547 191.328H588.484C595.047 191.328 601.234 192.453 607.047 194.703C612.859 196.859 617.922 199.906 622.234 203.844C626.547 207.781 629.969 212.516 632.5 218.047C635.031 223.578 636.297 229.625 636.297 236.188C636.297 242.844 635.031 249.078 632.5 254.891C629.969 260.609 626.547 265.672 622.234 270.078C617.922 274.391 612.859 277.812 607.047 280.344C601.234 282.781 595.047 284 588.484 284Z" fill="#0066FF"/>
</svg>
