<svg width="186" height="185" viewBox="0 0 186 185" fill="none" xmlns="http://www.w3.org/2000/svg">
<g filter="url(#filter0_d_90_25)">
<path fill-rule="evenodd" clip-rule="evenodd" d="M4.83984 135.753C4.83984 137.755 6.46255 139.378 8.46426 139.378H16.6192C18.6209 139.378 20.2436 141.001 20.2436 143.004V150.708C20.2436 152.71 21.8663 154.333 23.868 154.333H151.629C153.63 154.333 155.253 152.71 155.253 150.708V113.094C155.253 111.092 153.63 109.469 151.629 109.469H144.153C142.151 109.469 140.529 107.846 140.529 105.844V82.9584C140.529 80.9561 142.151 79.333 144.153 79.333H151.855C153.857 79.333 155.479 77.7099 155.479 75.7076V22.9131C155.479 20.9108 153.857 19.2877 151.855 19.2877H143.927C141.925 19.2877 140.302 17.6646 140.302 15.6623V7.95839C140.302 5.95614 138.68 4.33301 136.678 4.33301H8.91731C6.9156 4.33301 5.2929 5.95615 5.2929 7.95839V45.5717C5.2929 47.5739 6.9156 49.1971 8.91731 49.1971H31.5699C33.5716 49.1971 35.1943 50.8202 35.1943 52.8224V60.5264C35.1943 62.5286 33.5716 64.1517 31.5699 64.1517H23.6415C21.6398 64.1517 20.0171 65.7749 20.0171 67.7771V75.481C20.0171 77.4833 18.3944 79.1064 16.3927 79.1064H8.46426C6.46255 79.1064 4.83984 80.7296 4.83984 82.7318V135.753ZM20.2436 22.9131C20.2436 20.9108 21.8663 19.2877 23.868 19.2877H121.727C123.729 19.2877 125.352 20.9108 125.352 22.9131V45.5717C125.352 47.5739 123.729 49.1971 121.727 49.1971H114.025C112.024 49.1971 110.401 50.8202 110.401 52.8224V60.5264C110.401 62.5286 108.778 64.1517 106.776 64.1517H98.848C96.8463 64.1517 95.2236 65.7749 95.2236 67.7771V75.481C95.2236 77.4833 93.6009 79.1064 91.5992 79.1064H83.6708C81.6691 79.1064 80.0464 80.7296 80.0464 82.7318V90.6623C80.0464 92.6646 78.4237 94.2877 76.422 94.2877H68.4936C66.4919 94.2877 64.8692 95.9108 64.8692 97.9131V106.07C64.8692 108.072 66.4919 109.696 68.4936 109.696H121.727C123.729 109.696 125.352 111.319 125.352 113.321V121.025C125.352 123.027 123.729 124.65 121.727 124.65H23.6415C21.6398 124.65 20.0171 123.027 20.0171 121.025V97.9131C20.0171 95.9108 21.6398 94.2877 23.6415 94.2877H31.5699C33.5716 94.2877 35.1943 92.6646 35.1943 90.6623V82.9584C35.1943 80.9561 36.817 79.333 38.8187 79.333H46.7471C48.7488 79.333 50.3715 77.7099 50.3715 75.7076V67.7771C50.3715 65.7749 51.9942 64.1517 53.9959 64.1517H61.4713C63.473 64.1517 65.0957 62.5286 65.0957 60.5264V52.8224C65.0957 50.8202 66.7184 49.1971 68.7201 49.1971H76.6485C78.6502 49.1971 80.2729 47.5739 80.2729 45.5717V37.6412C80.2729 35.6389 78.6502 34.0158 76.6485 34.0158H23.868C21.8663 34.0158 20.2436 32.3927 20.2436 30.3904V22.9131Z" fill="#0066FF"/>
</g>
<g clip-path="url(#clip0_90_25)">
<rect width="64" height="64" rx="32" transform="matrix(-1 0 0 1 185.16 120.667)" fill="#0066FF"/>
<path d="M144.66 142.5L128.66 171.833" stroke="black" stroke-width="5" stroke-linecap="round" stroke-linejoin="round"/>
<path d="M159.66 142.167H124.66" stroke="black" stroke-width="5" stroke-linecap="round" stroke-linejoin="round"/>
<path d="M166.493 152.666L150.493 123.333" stroke="black" stroke-width="5" stroke-linecap="round" stroke-linejoin="round"/>
<path d="M161.66 162.833L177.66 133.5" stroke="black" stroke-width="5" stroke-linecap="round" stroke-linejoin="round"/>
<path d="M146.16 163.167L179.66 163.167" stroke="black" stroke-width="5" stroke-linecap="round" stroke-linejoin="round"/>
<path d="M139.826 152.667L155.826 182" stroke="black" stroke-width="5" stroke-linecap="round" stroke-linejoin="round"/>
</g>
<rect x="-2.5" y="2.5" width="59" height="59" rx="29.5" transform="matrix(-1 0 0 1 180.16 120.667)" stroke="black" stroke-width="5"/>
<defs>
<filter id="filter0_d_90_25" x="0.839844" y="0.333008" width="158.64" height="158" filterUnits="userSpaceOnUse" color-interpolation-filters="sRGB">
<feFlood flood-opacity="0" result="BackgroundImageFix"/>
<feColorMatrix in="SourceAlpha" type="matrix" values="0 0 0 0 0 0 0 0 0 0 0 0 0 0 0 0 0 0 127 0" result="hardAlpha"/>
<feOffset/>
<feGaussianBlur stdDeviation="2"/>
<feComposite in2="hardAlpha" operator="out"/>
<feColorMatrix type="matrix" values="0 0 0 0 0 0 0 0 0 0 0 0 0 0 0 0 0 0 0.25 0"/>
<feBlend mode="normal" in2="BackgroundImageFix" result="effect1_dropShadow_90_25"/>
<feBlend mode="normal" in="SourceGraphic" in2="effect1_dropShadow_90_25" result="shape"/>
</filter>
<clipPath id="clip0_90_25">
<rect width="64" height="64" rx="32" transform="matrix(-1 0 0 1 185.16 120.667)" fill="white"/>
</clipPath>
</defs>
</svg>
